<svg id="visual" viewBox="0 0 960 540" width="960" height="540" xmlns="http://www.w3.org/2000/svg" xmlns:xlink="http://www.w3.org/1999/xlink" version="1.1"><path d="M0 139L32 150.8C64 162.7 128 186.3 192 198C256 209.7 320 209.3 384 194.2C448 179 512 149 576 128.8C640 108.7 704 98.3 768 112C832 125.7 896 163.3 928 182.2L960 201L960 0L928 0C896 0 832 0 768 0C704 0 640 0 576 0C512 0 448 0 384 0C320 0 256 0 192 0C128 0 64 0 32 0L0 0Z" fill="#e0e8ff" stroke-linecap="round" stroke-linejoin="miter"></path></svg>